<?xml version="1.0" encoding="UTF-8" standalone="no"?>
<svg
   viewBox="0 0 96.934662 127.90933"
   height="127.90933"
   width="96.934662"
   xml:space="preserve"
   id="svg2"
   version="1.1"
   sodipodi:docname="iu10_logo.svg"
   inkscape:version="1.1.1 (3bf5ae0d25, 2021-09-20)"
   xmlns:inkscape="http://www.inkscape.org/namespaces/inkscape"
   xmlns:sodipodi="http://sodipodi.sourceforge.net/DTD/sodipodi-0.dtd"
   xmlns="http://www.w3.org/2000/svg"
   xmlns:svg="http://www.w3.org/2000/svg"
   xmlns:rdf="http://www.w3.org/1999/02/22-rdf-syntax-ns#"
   xmlns:cc="http://creativecommons.org/ns#"
   xmlns:dc="http://purl.org/dc/elements/1.1/"><sodipodi:namedview
     id="namedview2205"
     pagecolor="#ffffff"
     bordercolor="#666666"
     borderopacity="1.0"
     inkscape:pageshadow="2"
     inkscape:pageopacity="0.0"
     inkscape:pagecheckerboard="0"
     showgrid="false"
     inkscape:zoom="3.4644545"
     inkscape:cx="-11.978798"
     inkscape:cy="75.192213"
     inkscape:window-width="1920"
     inkscape:window-height="1137"
     inkscape:window-x="-8"
     inkscape:window-y="-8"
     inkscape:window-maximized="1"
     inkscape:current-layer="svg2"
     fit-margin-top="0"
     fit-margin-left="0"
     fit-margin-right="0"
     fit-margin-bottom="0" /><metadata
     id="metadata8"><rdf:RDF><cc:Work
         rdf:about=""><dc:format>image/svg+xml</dc:format><dc:type
           rdf:resource="http://purl.org/dc/dcmitype/StillImage" /></cc:Work></rdf:RDF></metadata><defs
     id="defs6"><radialGradient
   id="radialGradient30"
   spreadMethod="pad"
   gradientTransform="matrix(40.690167,0,0,-40.690167,122.34844,49.445995)"
   gradientUnits="userSpaceOnUse"
   r="1"
   cy="0"
   cx="0"
   fy="0"
   fx="0"><stop
     id="stop24"
     offset="0"
     style="stop-opacity:1;stop-color:#2d5282" /><stop
     id="stop26"
     offset="0.64354459"
     style="stop-opacity:1;stop-color:#2d5282" /><stop
     id="stop28"
     offset="1"
     style="stop-opacity:1;stop-color:#213362" /></radialGradient><clipPath
   id="clipPath40"
   clipPathUnits="userSpaceOnUse"><path
     id="path38"
     d="M 0,99.213 H 379.064 V 0 H 0 Z" /></clipPath><radialGradient
   id="radialGradient190"
   spreadMethod="pad"
   gradientTransform="matrix(28.048309,0,0,-28.048309,122.35098,49.624138)"
   gradientUnits="userSpaceOnUse"
   r="1"
   cy="0"
   cx="0"
   fy="0"
   fx="0"><stop
     id="stop186"
     offset="0"
     style="stop-opacity:1;stop-color:#305b91" /><stop
     id="stop188"
     offset="1"
     style="stop-opacity:1;stop-color:#0d4070" /></radialGradient><clipPath
   id="clipPath200"
   clipPathUnits="userSpaceOnUse"><path
     id="path198"
     d="M 0,99.213 H 379.064 V 0 H 0 Z" /></clipPath><clipPath
   id="clipPath340"
   clipPathUnits="userSpaceOnUse"><path
     id="path338"
     d="M 0,99.213 H 379.064 V 0 H 0 Z" /></clipPath>




</defs><g
     id="g4861"
     style="display:inline"
     transform="translate(-113.52328,-2.9025132)"><g
       id="g12"
       transform="matrix(1.3333333,0,0,-1.3333333,-1.1545829,132.57211)"><g
         id="g14"><g
           id="g20"><g
             id="g22"><path
               id="path32"
               style="fill:url(#radialGradient30);stroke:none"
               d="m 102.477,95.465 -0.353,-1.33 C 99.654,84.844 89.31,82.348 89.21,82.325 v 0 l -1.411,-0.321 0.019,-1.446 C 88.36,38.688 96.835,19.374 121.404,4.02 v 0 l 0.947,-0.593 0.947,0.593 c 24.568,15.354 33.044,34.656 33.586,76.489 v 0 l 0.014,1.455 -1.419,0.315 c -0.395,0.087 -9.703,2.252 -13.218,12.004 v 0 l -0.426,1.182 z" /></g></g></g></g><g
       id="g34"
       transform="matrix(1.3333333,0,0,-1.3333333,-1.1545829,132.57211)"><g
         clip-path="url(#clipPath40)"
         id="g36"><g
           transform="translate(143.0914,97.2522)"
           id="g42"><path
             id="path44"
             style="fill:#ffffff;fill-opacity:1;fill-rule:nonzero;stroke:none"
             d="m 0,0 h -2.512 -36.728 -2.749 l -0.706,-2.657 c -2.183,-8.216 -11.215,-10.44 -11.598,-10.531 l -2.79,-0.66 0.021,-2.869 c 0.553,-42.6 9.24,-62.289 34.426,-78.032 l 1.895,-1.183 1.895,1.183 c 25.188,15.743 33.874,35.42 34.427,77.982 l 0.037,2.926 -2.859,0.616 c -0.336,0.077 -8.745,2.087 -11.907,10.862 z m -2.512,-3.575 c 3.914,-10.862 14.518,-13.145 14.518,-13.145 -0.542,-41.766 -8.911,-60.1 -32.747,-74.996 -23.835,14.896 -32.204,33.28 -32.745,75.045 0,0 11.457,2.6 14.246,13.096 h 36.728" /></g><g
           transform="translate(92.8638,58.3142)"
           id="g46"><path
             id="path48"
             style="fill:#ffffff;fill-opacity:1;fill-rule:nonzero;stroke:none"
             d="M 0,0 2.256,0.298 2.282,0.108 1.27,-0.026 1.348,-0.615 2.456,-1.21 2.485,-1.429 1.281,-0.785 0.239,-1.805 0.209,-1.583 1.168,-0.646 1.089,-0.049 0.025,-0.19 Z" /></g><g
           transform="translate(93.9791,56.0148)"
           id="g50"><path
             id="path52"
             style="fill:#ffffff;fill-opacity:1;fill-rule:nonzero;stroke:none"
             d="m 0,0 0.171,-1.119 1.118,0.714 c 0.023,0.014 0.045,0.027 0.066,0.04 -0.024,0.006 -0.048,0.012 -0.075,0.018 z m -0.868,0.43 2.403,-0.659 0.032,-0.216 -2.096,-1.343 -0.032,0.206 0.564,0.359 -0.194,1.269 -0.646,0.178 z" /></g><g
           transform="translate(94.0499,52.8449)"
           id="g54"><path
             id="path56"
             style="fill:#ffffff;fill-opacity:1;fill-rule:nonzero;stroke:none"
             d="m 0,0 c 0.127,-0.63 0.47,-0.93 0.94,-0.848 0.47,0.083 0.69,0.481 0.596,1.117 z M -0.034,0.192 1.502,0.461 C 1.375,1.088 1.032,1.391 0.562,1.309 0.092,1.226 -0.128,0.825 -0.034,0.192 M -0.5,0.11 -0.207,0.162 C -0.317,0.871 -0.066,1.396 0.528,1.5 1.124,1.604 1.538,1.196 1.674,0.491 L 1.969,0.542 2.002,0.351 1.708,0.299 C 1.819,-0.41 1.568,-0.936 0.974,-1.04 c -0.596,-0.104 -1.01,0.305 -1.147,1.01 l -0.294,-0.052 z" /></g><g
           transform="translate(96.5235,50.1384)"
           id="g58"><path
             id="path60"
             style="fill:#ffffff;fill-opacity:1;fill-rule:nonzero;stroke:none"
             d="M 0,0 -0.182,-0.037 -0.442,1.258 -1.277,1.09 -1.037,-0.109 -1.218,-0.145 -1.459,1.054 -2.31,0.883 -2.046,-0.434 -2.228,-0.471 -2.53,1.035 -0.297,1.482 Z" /></g><g
           transform="translate(94.6251,49.007)"
           id="g62"><path
             id="path64"
             style="fill:#ffffff;fill-opacity:1;fill-rule:nonzero;stroke:none"
             d="M 0,0 0.295,-1.319 2.152,-0.903 1.939,0.048 C 1.288,-0.075 0.532,-0.144 0,0 m -0.823,0.301 0.719,0.162 0.057,-0.251 C 0.548,0.036 1.37,0.124 2.077,0.281 l 0.298,-1.33 -2.038,-0.456 0.062,-0.276 -0.72,-0.161 -0.04,0.181 0.539,0.12 -0.422,1.882 -0.539,-0.12 z" /></g><g
           transform="translate(97.1622,46.5271)"
           id="g66"><path
             id="path68"
             style="fill:#ffffff;fill-opacity:1;fill-rule:nonzero;stroke:none"
             d="M 0,0 -0.136,0.545 -1.18,0.284 -1.044,-0.261 c 0.1,-0.397 0.29,-0.705 0.707,-0.601 C 0.079,-0.758 0.101,-0.401 0,0 m 0.178,0.055 c 0.125,-0.502 0.074,-0.971 -0.468,-1.107 -0.545,-0.135 -0.811,0.254 -0.936,0.755 l -0.135,0.539 -0.804,-0.2 -0.046,0.186 2.207,0.551 z" /></g><g
           transform="translate(96.2803,44.7556)"
           id="g70"><path
             id="path72"
             style="fill:#ffffff;fill-opacity:1;fill-rule:nonzero;stroke:none"
             d="m 0,0 0.3,-1.091 1.027,0.839 c 0.023,0.017 0.042,0.032 0.061,0.048 -0.024,0.003 -0.049,0.007 -0.076,0.009 z m -0.913,0.325 2.464,-0.373 0.058,-0.211 -1.926,-1.578 -0.055,0.2 0.518,0.423 -0.341,1.237 -0.662,0.102 z" /></g><g
           transform="translate(96.8301,40.1491)"
           id="g74"><path
             id="path76"
             style="fill:#ffffff;fill-opacity:1;fill-rule:nonzero;stroke:none"
             d="m 0,0 1.671,0.536 c 0.062,0.02 0.124,0.039 0.185,0.059 L -0.456,1.421 -0.509,1.588 1.657,2.282 1.716,2.1 0.048,1.564 -0.138,1.506 2.171,0.679 2.225,0.512 0.058,-0.183 Z" /></g><g
           transform="translate(97.1285,39.1521)"
           id="g78"><path
             id="path80"
             style="fill:#ffffff;fill-opacity:1;fill-rule:nonzero;stroke:none"
             d="M 0,0 C -0.03,0.086 -0.052,0.186 -0.057,0.28 L 0.114,0.341 C 0.12,0.267 0.131,0.175 0.161,0.092 0.224,-0.086 0.335,-0.208 0.657,-0.261 L 0.747,-0.271 2.028,1.198 2.099,0.996 0.953,-0.308 2.626,-0.5 2.696,-0.695 0.751,-0.469 C 0.259,-0.411 0.081,-0.229 0,0" /></g><g
           transform="translate(99.2735,36.9694)"
           id="g82"><path
             id="path84"
             style="fill:#ffffff;fill-opacity:1;fill-rule:nonzero;stroke:none"
             d="M 0,0 -0.164,-0.062 -0.57,1.005 -0.406,1.067 Z" /></g><g
           transform="translate(100.524,36.487)"
           id="g86"><path
             id="path88"
             style="fill:#ffffff;fill-opacity:1;fill-rule:nonzero;stroke:none"
             d="m 0,0 -1.879,-0.754 0.161,-0.4 -0.172,-0.07 -0.412,1.029 0.172,0.068 0.18,-0.448 1.685,0.676 -0.349,0.381 0.172,0.069 0.39,-0.421 z" /></g><g
           transform="translate(101.0196,34.9294)"
           id="g90"><path
             id="path92"
             style="fill:#ffffff;fill-opacity:1;fill-rule:nonzero;stroke:none"
             d="m 0,0 c -0.21,0.482 -0.65,0.558 -1.187,0.324 -0.536,-0.232 -0.781,-0.605 -0.572,-1.088 0.21,-0.482 0.65,-0.557 1.186,-0.325 C -0.037,-0.855 0.209,-0.482 0,0 m 0.167,0.072 c 0.263,-0.604 -0.057,-1.076 -0.662,-1.34 -0.602,-0.26 -1.168,-0.173 -1.431,0.432 -0.262,0.605 0.06,1.078 0.662,1.339 0.605,0.264 1.168,0.175 1.431,-0.431" /></g><g
           transform="translate(141.4039,26.7878)"
           id="g94"><path
             id="path96"
             style="fill:#ffffff;fill-opacity:1;fill-rule:nonzero;stroke:none"
             d="m 0,0 c -0.174,-0.266 -0.346,-0.444 -0.553,-0.588 l -0.163,0.107 c 0.216,0.133 0.388,0.312 0.557,0.571 0.181,0.276 0.293,0.647 -0.02,0.851 -0.304,0.2 -0.586,-0.05 -0.763,-0.323 l -0.246,-0.374 -0.153,0.1 0.236,0.358 C -0.904,1.009 -0.896,1.3 -1.122,1.447 -1.38,1.616 -1.636,1.45 -1.836,1.146 -1.985,0.918 -2.057,0.72 -2.094,0.468 l -0.163,0.107 c 0.038,0.236 0.119,0.443 0.277,0.682 0.252,0.386 0.612,0.585 0.946,0.365 0.239,-0.156 0.286,-0.416 0.195,-0.667 0.172,0.191 0.465,0.348 0.783,0.139 C 0.347,0.83 0.227,0.346 0,0" /></g><g
           transform="translate(141.5699,28.5925)"
           id="g98"><path
             id="path100"
             style="fill:#ffffff;fill-opacity:1;fill-rule:nonzero;stroke:none"
             d="m 0,0 0.58,0.971 -1.314,0.161 c -0.028,0.005 -0.052,0.008 -0.077,0.011 0.014,-0.02 0.029,-0.04 0.046,-0.062 z M 0.396,-0.884 -1.036,1.152 -0.925,1.34 1.546,1.041 1.438,0.862 0.776,0.944 0.118,-0.158 0.502,-0.705 Z" /></g><g
           transform="translate(145.1675,32.3171)"
           id="g102"><path
             id="path104"
             style="fill:#ffffff;fill-opacity:1;fill-rule:nonzero;stroke:none"
             d="m 0,0 -0.488,0.259 -1.354,-2.584 -2.014,1.055 0.089,0.17 1.85,-0.969 0.521,0.993 -1.851,0.969 0.089,0.169 1.85,-0.968 0.52,0.993 -1.85,0.969 0.089,0.17 1.851,-0.97 0.131,0.25 0.653,-0.342 z" /></g><g
           transform="translate(145.6548,34.695)"
           id="g106"><path
             id="path108"
             style="fill:#ffffff;fill-opacity:1;fill-rule:nonzero;stroke:none"
             d="m 0,0 -1.597,0.73 c -0.059,0.028 -0.118,0.055 -0.177,0.082 l 1.153,-2.168 -0.073,-0.161 -2.071,0.948 0.08,0.174 1.594,-0.729 c 0.06,-0.027 0.118,-0.054 0.178,-0.081 l -1.15,2.168 0.073,0.159 2.07,-0.947 z" /></g><g
           transform="translate(144.4966,37.8171)"
           id="g110"><path
             id="path112"
             style="fill:#ffffff;fill-opacity:1;fill-rule:nonzero;stroke:none"
             d="M 0,0 0.172,-0.071 -0.146,-0.84 1.786,-1.635 1.713,-1.812 -0.218,-1.017 -0.535,-1.785 -0.706,-1.716 Z" /></g><g
           transform="translate(146.0123,37.6364)"
           id="g114"><path
             id="path116"
             style="fill:#ffffff;fill-opacity:1;fill-rule:nonzero;stroke:none"
             d="M 0,0 0.398,1.059 -0.925,0.983 c -0.027,0 -0.053,0 -0.077,-0.001 0.018,-0.017 0.035,-0.035 0.057,-0.052 z M 0.546,-0.8 -1.226,0.951 -1.148,1.155 1.337,1.299 1.264,1.104 0.597,1.067 0.145,-0.134 0.619,-0.605 Z" /></g><g
           transform="translate(148.2613,41.7067)"
           id="g118"><path
             id="path120"
             style="fill:#ffffff;fill-opacity:1;fill-rule:nonzero;stroke:none"
             d="m 0,0 -1.672,0.535 c -0.061,0.02 -0.124,0.039 -0.185,0.059 l 1.402,-2.015 -0.053,-0.167 -2.167,0.693 0.058,0.183 1.669,-0.534 c 0.062,-0.02 0.124,-0.039 0.185,-0.059 l -1.399,2.014 0.054,0.167 2.167,-0.693 z" /></g><g
           transform="translate(146.8179,44.9401)"
           id="g122"><path
             id="path124"
             style="fill:#ffffff;fill-opacity:1;fill-rule:nonzero;stroke:none"
             d="M 0,0 2.192,-0.609 2.141,-0.795 1.129,-0.514 0.733,-1.936 1.745,-2.217 1.693,-2.401 l -2.192,0.61 0.052,0.184 1.003,-0.279 0.394,1.422 -1.002,0.279 z" /></g><g
           transform="translate(149.107,46.196)"
           id="g126"><path
             id="path128"
             style="fill:#ffffff;fill-opacity:1;fill-rule:nonzero;stroke:none"
             d="M 0,0 C 0.134,0.63 -0.062,1.041 -0.526,1.153 -0.991,1.265 -1.352,0.987 -1.518,0.365 Z m -0.046,-0.189 -1.517,0.364 c -0.134,-0.626 0.06,-1.041 0.525,-1.153 0.465,-0.111 0.826,0.169 0.992,0.789 m 0.461,-0.112 -0.29,0.071 c -0.181,-0.697 -0.62,-1.079 -1.209,-0.937 -0.588,0.141 -0.806,0.682 -0.65,1.383 l -0.291,0.07 0.046,0.19 0.291,-0.07 c 0.179,0.696 0.62,1.078 1.208,0.937 C 0.107,1.201 0.325,0.661 0.17,-0.041 L 0.461,-0.11 Z" /></g><g
           transform="translate(147.941,49.1457)"
           id="g130"><path
             id="path132"
             style="fill:#ffffff;fill-opacity:1;fill-rule:nonzero;stroke:none"
             d="m 0,0 c -0.131,-0.653 0.292,-1.066 0.776,-1.164 0.485,-0.097 1.035,0.12 1.166,0.772 C 2.074,0.261 1.65,0.675 1.167,0.772 0.683,0.87 0.132,0.652 0,0 M -0.178,0.036 C -0.021,0.813 0.639,1.077 1.205,0.963 1.771,0.849 2.277,0.349 2.121,-0.427 1.964,-1.205 1.305,-1.469 0.738,-1.355 0.171,-1.241 -0.335,-0.741 -0.178,0.036" /></g><g
           transform="translate(148.4107,51.4753)"
           id="g134"><path
             id="path136"
             style="fill:#ffffff;fill-opacity:1;fill-rule:nonzero;stroke:none"
             d="m 0,0 -0.094,-0.554 1.061,-0.179 0.094,0.554 C 1.129,0.225 1.077,0.583 0.654,0.654 0.231,0.726 0.068,0.407 0,0 M -0.185,0.021 C -0.099,0.531 0.136,0.939 0.687,0.846 1.241,0.752 1.327,0.29 1.241,-0.22 L 1.148,-0.768 1.966,-0.906 1.934,-1.094 -0.31,-0.715 Z" /></g><g
           transform="translate(148.7632,55.1081)"
           id="g138"><path
             id="path140"
             style="fill:#ffffff;fill-opacity:1;fill-rule:nonzero;stroke:none"
             d="M 0,0 2.255,-0.312 2.229,-0.501 0.341,-0.24 1.532,-1.312 1.516,-1.43 0.079,-2.137 l 1.887,-0.261 -0.027,-0.19 -2.253,0.311 0.022,0.161 1.581,0.779 -1.31,1.176 z" /></g><g
           transform="translate(150.3365,55.8137)"
           id="g142"><path
             id="path144"
             style="fill:#ffffff;fill-opacity:1;fill-rule:nonzero;stroke:none"
             d="M 0,0 0.122,1.124 -1.141,0.721 C -1.167,0.714 -1.191,0.707 -1.215,0.7 -1.193,0.687 -1.172,0.675 -1.147,0.663 Z M 0.729,-0.638 -1.424,0.614 -1.4,0.831 0.97,1.591 0.947,1.384 0.312,1.182 0.173,-0.094 0.751,-0.431 Z" /></g><g
           transform="translate(152.0494,59.653)"
           id="g146"><path
             id="path148"
             style="fill:#ffffff;fill-opacity:1;fill-rule:nonzero;stroke:none"
             d="m 0,0 -0.55,0.049 -0.158,-1.909 -2.269,0.187 0.016,0.192 2.084,-0.172 0.118,1.425 -2.084,0.173 0.016,0.194 2.084,-0.172 0.023,0.279 0.736,-0.061 z" /></g><g
           transform="translate(151.6343,61.9924)"
           id="g150"><path
             id="path152"
             style="fill:#ffffff;fill-opacity:1;fill-rule:nonzero;stroke:none"
             d="m 0,0 -1.754,0.099 c -0.065,0.003 -0.131,0.007 -0.195,0.01 l 1.865,-1.6 -0.01,-0.176 -2.274,0.128 0.012,0.192 1.75,-0.098 c 0.065,-0.005 0.129,-0.008 0.195,-0.012 l -1.862,1.601 0.009,0.175 2.275,-0.128 z" /></g><g
           transform="translate(151.7281,64.5085)"
           id="g154"><path
             id="path156"
             style="fill:#ffffff;fill-opacity:1;fill-rule:nonzero;stroke:none"
             d="m 0,0 -1.754,0.057 c -0.065,0.002 -0.13,0.004 -0.195,0.006 l 1.901,-1.555 -0.006,-0.175 -2.274,0.074 0.006,0.192 1.752,-0.057 c 0.064,-0.002 0.13,-0.004 0.194,-0.006 l -1.897,1.553 0.005,0.177 2.274,-0.075 z" /></g><g
           transform="translate(144.3931,78.8894)"
           id="g158"><path
             id="path160"
             style="fill:#ffffff;fill-opacity:1;fill-rule:nonzero;stroke:none"
             d="M 0,0 C -0.537,-0.199 -1.134,0.075 -1.333,0.613 -1.532,1.15 -1.258,1.748 -0.721,1.946 -0.184,2.146 0.414,1.872 0.613,1.334 0.812,0.796 0.538,0.199 0,0" /></g><g
           transform="translate(123.3882,11.2146)"
           id="g162"><path
             id="path164"
             style="fill:#ffffff;fill-opacity:1;fill-rule:nonzero;stroke:none"
             d="m 0,0 c 0,-0.573 -0.464,-1.038 -1.038,-1.038 -0.573,0 -1.038,0.465 -1.038,1.038 0,0.573 0.465,1.038 1.038,1.038 C -0.464,1.038 0,0.573 0,0" /></g><g
           transform="translate(101.6666,79.8625)"
           id="g166"><path
             id="path168"
             style="fill:#ffffff;fill-opacity:1;fill-rule:nonzero;stroke:none"
             d="m 0,0 c 0,-0.573 -0.465,-1.038 -1.038,-1.038 -0.573,0 -1.038,0.465 -1.038,1.038 0,0.573 0.465,1.038 1.038,1.038 C -0.465,1.038 0,0.573 0,0" /></g><g
           transform="translate(122.3511,89.5778)"
           id="g170"><path
             id="path172"
             style="fill:#ffffff;fill-opacity:1;fill-rule:nonzero;stroke:none"
             d="M 0,0 -9.242,-2.025 0,-4.155 l 9.242,2.13 z" /></g></g></g><g
       id="g174"
       transform="matrix(1.3333333,0,0,-1.3333333,-1.1545829,132.57211)"><g
         id="g176"><g
           id="g182"><g
             id="g184"><path
               id="path192"
               style="fill:url(#radialGradient190);stroke:none"
               d="m 108.577,81.298 -0.284,-1.067 c -1.657,-6.238 -8.622,-7.924 -8.689,-7.939 v 0 l -1.132,-0.257 0.015,-1.161 c 0.372,-28.647 6.203,-41.882 23.108,-52.447 v 0 l 0.761,-0.476 0.76,0.476 c 8.784,5.489 14.257,11.455 17.747,19.342 v 0 c 3.508,7.927 5.158,18.126 5.351,33.072 v 0 l 0.016,1.173 -1.147,0.247 c -0.065,0.014 -6.513,1.474 -8.897,8.088 v 0 l -0.342,0.949 z" /></g></g></g></g><g
       id="g194"
       transform="matrix(1.3333333,0,0,-1.3333333,-1.1545829,132.57211)"><g
         clip-path="url(#clipPath200)"
         id="g196"><g
           transform="translate(111.6436,56.5588)"
           id="g202"><path
             id="path204"
             style="fill:#ffffff;fill-opacity:1;fill-rule:nonzero;stroke:none"
             d="m 0,0 1.749,-8.002 -1.715,-0.374 -1.076,4.926 -1.414,-3.674 -0.994,-0.217 -2.82,2.761 1.08,-4.938 -1.715,-0.375 -1.748,8.002 1.589,0.348 3.652,-3.562 1.823,4.758 z" /></g><g
           transform="translate(114.9039,48.6564)"
           id="g206"><path
             id="path208"
             style="fill:#ffffff;fill-opacity:1;fill-rule:nonzero;stroke:none"
             d="M 0,0 -0.732,8.156 4.966,8.667 5.107,7.094 1.157,6.74 1.748,0.157 Z" /></g><g
           transform="translate(132.4361,56.5935)"
           id="g210"><path
             id="path212"
             style="fill:#ffffff;fill-opacity:1;fill-rule:nonzero;stroke:none"
             d="m 0,0 -0.17,-1.571 -2.502,0.271 -0.712,-6.572 -1.733,0.188 0.713,6.573 -2.501,0.271 0.17,1.57 z" /></g><g
           transform="translate(134.1626,47.6521)"
           id="g214"><path
             id="path216"
             style="fill:#ffffff;fill-opacity:1;fill-rule:nonzero;stroke:none"
             d="M 0,0 C -0.389,0.085 -0.794,0.259 -1.168,0.46 L -0.85,1.912 C -0.596,1.76 -0.276,1.63 0.043,1.56 0.569,1.444 1.02,1.477 1.436,2.009 L 1.635,2.264 -0.31,8.621 1.587,8.204 2.785,3.628 5.437,7.358 7.323,6.943 3.064,1.411 C 1.992,0.018 1.017,-0.224 0,0" /></g><g
           transform="translate(105.8331,38.5241)"
           id="g218"><path
             id="path220"
             style="fill:#ffffff;fill-opacity:1;fill-rule:nonzero;stroke:none"
             d="M 0,0 V 1.814 H 0.215 V 0.345 L 1.443,1.814 H 1.629 V 0 H 1.417 V 1.471 L 0.185,0 Z" /></g><g
           transform="translate(108.0513,38.5241)"
           id="g222"><path
             id="path224"
             style="fill:#ffffff;fill-opacity:1;fill-rule:nonzero;stroke:none"
             d="M 0,0 V 1.814 H 0.234 L 0.967,0.741 1.7,1.814 H 1.931 V 0 H 1.727 V 1.497 L 1.046,0.503 H 0.888 L 0.204,1.497 V 0 Z" /></g><g
           transform="translate(110.6656,38.4939)"
           id="g226"><path
             id="path228"
             style="fill:#ffffff;fill-opacity:1;fill-rule:nonzero;stroke:none"
             d="m 0,0 c -0.079,0 -0.151,0.054 -0.151,0.147 0,0.095 0.072,0.148 0.151,0.148 0.083,0 0.151,-0.053 0.151,-0.148 C 0.151,0.054 0.083,0 0,0" /></g><g
           transform="translate(114.5538,41.1696)"
           id="g230"><path
             id="path232"
             style="fill:#ffffff;fill-opacity:1;fill-rule:nonzero;stroke:none"
             d="m 0,0 v -2.646 h -0.223 v 1.221 H -1.938 V -2.646 H -2.161 V 0 h 0.223 v -1.209 h 1.715 V 0 Z" /></g><g
           transform="translate(115.2642,38.4939)"
           id="g234"><path
             id="path236"
             style="fill:#ffffff;fill-opacity:1;fill-rule:nonzero;stroke:none"
             d="m 0,0 c -0.079,0 -0.151,0.054 -0.151,0.147 0,0.095 0.072,0.148 0.151,0.148 0.083,0 0.151,-0.053 0.151,-0.148 C 0.151,0.054 0.083,0 0,0" /></g><g
           transform="translate(116.5753,41.2116)"
           id="g238"><path
             id="path240"
             style="fill:#ffffff;fill-opacity:1;fill-rule:nonzero;stroke:none"
             d="m 0,0 c 0.669,0 1.372,-0.454 1.372,-1.387 0,-0.933 -0.707,-1.342 -1.379,-1.342 -0.265,0 -0.53,0.065 -0.741,0.182 v 0.231 c 0.204,-0.133 0.454,-0.201 0.71,-0.201 0.567,0 1.153,0.306 1.183,1.046 h -1.451 v 0.212 h 1.447 c -0.045,0.714 -0.616,1.047 -1.171,1.047 -0.257,0 -0.525,-0.068 -0.718,-0.192 v 0.226 C -0.533,-0.061 -0.268,0 0,0" /></g><g
           transform="translate(118.3624,38.4939)"
           id="g242"><path
             id="path244"
             style="fill:#ffffff;fill-opacity:1;fill-rule:nonzero;stroke:none"
             d="m 0,0 c -0.079,0 -0.151,0.054 -0.151,0.147 0,0.095 0.072,0.148 0.151,0.148 0.083,0 0.151,-0.053 0.151,-0.148 C 0.151,0.054 0.083,0 0,0" /></g><g
           transform="translate(121.0489,38.7399)"
           id="g246"><path
             id="path248"
             style="fill:#ffffff;fill-opacity:1;fill-rule:nonzero;stroke:none"
             d="M 0,0 C 0.416,0 0.805,0.064 0.805,0.556 0.805,1.047 0.412,1.111 0,1.111 H -0.733 V 0 Z m -0.011,1.326 c 0.517,0 1.043,-0.128 1.043,-0.77 0,-0.643 -0.526,-0.772 -1.043,-0.772 H -0.959 V 2.43 H 0.832 V 2.214 H -0.737 V 1.326 Z" /></g><g
           transform="translate(122.8516,39.447)"
           id="g250"><path
             id="path252"
             style="fill:#ffffff;fill-opacity:1;fill-rule:nonzero;stroke:none"
             d="M 0,0 H 1.315 L 0.691,1.409 C 0.68,1.439 0.668,1.466 0.657,1.492 0.646,1.466 0.635,1.439 0.624,1.409 Z M -0.646,-0.923 0.533,1.723 H 0.786 L 1.961,-0.923 H 1.719 l -0.314,0.711 h -1.492 l -0.317,-0.711 z" /></g><g
           transform="translate(125.4283,38.4831)"
           id="g254"><path
             id="path256"
             style="fill:#ffffff;fill-opacity:1;fill-rule:nonzero;stroke:none"
             d="m 0,0 c -0.105,0 -0.223,0.015 -0.329,0.045 v 0.212 c 0.083,-0.023 0.189,-0.045 0.291,-0.045 0.22,0 0.397,0.075 0.579,0.408 l 0.045,0.094 -1.115,1.973 h 0.25 L 0.707,0.926 1.564,2.687 H 1.806 L 0.805,0.643 C 0.552,0.125 0.284,0 0,0" /></g><g
           transform="translate(130.2652,41.1696)"
           id="g258"><path
             id="path260"
             style="fill:#ffffff;fill-opacity:1;fill-rule:nonzero;stroke:none"
             d="m 0,0 v -2.646 h -0.223 v 2.215 l -1.043,-1.542 h -0.14 l -1.043,1.542 V -2.646 H -2.671 V 0 h 0.188 L -1.334,-1.696 -0.189,0 Z" /></g><g
           transform="translate(131.3194,39.447)"
           id="g262"><path
             id="path264"
             style="fill:#ffffff;fill-opacity:1;fill-rule:nonzero;stroke:none"
             d="M 0,0 H 1.315 L 0.691,1.409 C 0.68,1.439 0.668,1.466 0.657,1.492 0.646,1.466 0.634,1.439 0.624,1.409 Z M -0.646,-0.923 0.533,1.723 H 0.786 L 1.96,-0.923 H 1.719 l -0.313,0.711 h -1.493 l -0.317,-0.711 z" /></g><g
           transform="translate(135.8531,41.1696)"
           id="g266"><path
             id="path268"
             style="fill:#ffffff;fill-opacity:1;fill-rule:nonzero;stroke:none"
             d="m 0,0 v -2.646 h -0.223 v 1.221 H -1.938 V -2.646 H -2.161 V 0 h 0.223 v -1.209 h 1.715 V 0 Z" /></g><g
           transform="translate(136.9078,39.447)"
           id="g270"><path
             id="path272"
             style="fill:#ffffff;fill-opacity:1;fill-rule:nonzero;stroke:none"
             d="M 0,0 H 1.314 L 0.691,1.409 C 0.68,1.439 0.669,1.466 0.657,1.492 0.646,1.466 0.635,1.439 0.623,1.409 Z M -0.646,-0.923 0.533,1.723 H 0.786 L 1.961,-0.923 H 1.719 l -0.314,0.711 h -1.492 l -0.317,-0.711 z" /></g><g
           transform="translate(119.5748,27.2605)"
           id="g274"><path
             id="path276"
             style="fill:#ffffff;fill-opacity:1;fill-rule:nonzero;stroke:none"
             d="m 0,0 v -1.922 h 0.397 v -0.45 h -1.353 v 0.45 h 0.447 v 1.399 l -0.447,-0.168 v 0.47 L -0.38,0 Z" /></g><g
           transform="translate(121.1714,26.8972)"
           id="g278"><path
             id="path280"
             style="fill:#ffffff;fill-opacity:1;fill-rule:nonzero;stroke:none"
             d="m 0,0 c -0.251,0 -0.394,-0.115 -0.394,-0.248 0,-0.209 0.213,-0.275 0.446,-0.352 0.07,-0.017 0.143,-0.042 0.22,-0.062 0.112,0.111 0.171,0.251 0.167,0.366 C 0.439,-0.133 0.293,0 0,0 m -0.272,-0.914 c -0.129,-0.107 -0.188,-0.251 -0.185,-0.373 0.004,-0.202 0.164,-0.359 0.523,-0.359 0.252,0 0.443,0.105 0.443,0.265 0,0.202 -0.195,0.269 -0.428,0.349 -0.105,0.038 -0.231,0.073 -0.353,0.118 m 0.293,1.326 c 0.604,0 0.917,-0.339 0.921,-0.67 0.003,-0.23 -0.109,-0.404 -0.3,-0.548 0.216,-0.108 0.387,-0.275 0.387,-0.561 0,-0.349 -0.286,-0.691 -1.001,-0.691 -0.708,0 -1.008,0.346 -1.008,0.708 0,0.238 0.147,0.464 0.37,0.597 -0.164,0.111 -0.283,0.269 -0.283,0.509 0,0.317 0.266,0.656 0.914,0.656" /></g><g
           transform="translate(123.8214,26.1442)"
           id="g282"><path
             id="path284"
             style="fill:#ffffff;fill-opacity:1;fill-rule:nonzero;stroke:none"
             d="m 0,0 c 0.241,-0.073 0.457,-0.259 0.457,-0.607 0,-0.498 -0.46,-0.698 -0.949,-0.698 -0.307,0 -0.554,0.049 -0.822,0.16 v 0.486 c 0.268,-0.151 0.508,-0.189 0.781,-0.186 0.268,0 0.491,0.088 0.491,0.311 0,0.202 -0.174,0.275 -0.411,0.275 h -0.391 l 0.004,0.446 0.327,-0.002 c 0.234,0 0.377,0.086 0.377,0.251 0,0.17 -0.15,0.272 -0.436,0.272 -0.213,0 -0.467,-0.07 -0.701,-0.213 v 0.484 c 0.213,0.116 0.481,0.186 0.774,0.186 0.492,0 0.858,-0.224 0.858,-0.656 C 0.359,0.265 0.223,0.076 0,0" /></g><g
           transform="translate(125.6514,26.8483)"
           id="g286"><path
             id="path288"
             style="fill:#ffffff;fill-opacity:1;fill-rule:nonzero;stroke:none"
             d="m 0,0 c -0.383,0 -0.558,-0.269 -0.558,-0.774 0,-0.506 0.175,-0.775 0.558,-0.775 0.384,0 0.558,0.269 0.558,0.775 C 0.558,-0.269 0.384,0 0,0 m 0,0.461 c 0.757,0 1.082,-0.552 1.082,-1.235 0,-0.684 -0.325,-1.235 -1.082,-1.235 -0.756,0 -1.081,0.551 -1.081,1.235 0,0.683 0.325,1.235 1.081,1.235" /></g><g
           transform="translate(121.8594,74.0617)"
           id="g290"><path
             id="path292"
             style="fill:#fcbf00;fill-opacity:1;fill-rule:evenodd;stroke:none"
             d="m 0,0 c -0.447,-31.768 0.492,-27.289 -19.153,-29.863 -0.196,-0.374 0.338,-1.905 0.338,-1.905 h 38.473 c 0,0 0.307,0.706 0.521,1.661 C 0.492,-27.396 1.95,-31.768 1.002,-0.014 0.492,0.25 0.492,0.25 0,0" /></g><g
           transform="translate(104.6695,37.1013)"
           id="g294"><path
             id="path296"
             style="fill:#fcbf00;fill-opacity:1;fill-rule:evenodd;stroke:none"
             d="m 0,0 c 0,0 0.405,-1.149 0.69,-1.424 16.992,-1.54 16.992,-6.862 16.992,-6.862 0,0 0,5.322 17.569,6.992 0.29,0.25 0.82,1.294 0.82,1.294 z" /></g><g
           transform="translate(103.0445,42.2937)"
           id="g298"><path
             id="path300"
             style="fill:#fcbf00;fill-opacity:1;fill-rule:evenodd;stroke:none"
             d="m 0,0 h 38.473 c 0,0 0.258,0.704 0.521,1.661" /></g><g
           transform="translate(121.2525,73.0266)"
           id="g302"><path
             id="path304"
             style="fill:#c5212c;fill-opacity:1;fill-rule:nonzero;stroke:none"
             d="M 0,0 -2.196,1.427 0.419,1.291 1.099,3.821 1.777,1.291 4.394,1.427 2.197,0 3.135,-2.446 1.099,-0.798 -0.938,-2.446 Z" /></g><g
           transform="translate(122.3511,77.8649)"
           id="g306"><path
             id="path308"
             style="fill:#ffffff;fill-opacity:1;fill-rule:nonzero;stroke:none"
             d="M 0,0 -0.878,-3.273 -4.262,-3.097 -1.421,-4.943 -2.634,-8.107 0,-5.976 2.634,-8.107 1.42,-4.943 4.262,-3.097 0.878,-3.273 Z M 0,-2.034 0.369,-3.41 0.479,-3.822 0.905,-3.799 2.328,-3.726 1.133,-4.501 0.776,-4.734 0.929,-5.132 1.438,-6.462 0.332,-5.566 0,-5.298 l -0.332,-0.268 -1.107,-0.896 0.51,1.33 0.153,0.398 -0.358,0.233 -1.194,0.775 1.422,-0.073 0.427,-0.023 0.11,0.412 z" /></g><g
           transform="translate(136.8521,82.7321)"
           id="g310"><path
             id="path312"
             style="fill:#ffffff;fill-opacity:1;fill-rule:nonzero;stroke:none"
             d="m 0,0 h -2.016 -25.156 -2.207 l -0.567,-2.132 c -1.448,-5.449 -7.558,-6.895 -7.62,-6.909 l -2.265,-0.514 0.031,-2.321 c 0.379,-29.233 6.38,-42.77 23.783,-53.646 l 1.52,-0.952 1.521,0.952 c 17.396,10.872 23.394,24.4 23.773,53.611 l 0.031,2.383 -2.288,0.459 c -0.365,0.086 -5.8,1.465 -7.856,7.173 z m -2.016,-2.87 c 2.681,-7.439 9.944,-9.003 9.944,-9.003 -0.371,-28.607 -6.099,-41.013 -22.425,-51.216 -16.325,10.203 -22.063,22.643 -22.434,51.25 0,0 7.848,1.78 9.759,8.969 h 25.156" /></g></g></g></g></svg>
